<mxfile host="app.diagrams.net" modified="2020-11-11T09:26:17.607Z" agent="5.0 (Windows NT 10.0; Win64; x64) AppleWebKit/537.36 (KHTML, like Gecko) Chrome/86.0.4240.183 Safari/537.36" etag="R0nfB0tKUFvCY3AuMVst" version="13.9.2" type="github">
  <diagram id="Hqo-9IRjKZNM-lSCQjYP" name="Page-1">
    <mxGraphModel dx="1102" dy="582" grid="1" gridSize="10" guides="1" tooltips="1" connect="1" arrows="1" fold="1" page="1" pageScale="1" pageWidth="827" pageHeight="1169" math="0" shadow="0">
      <root>
        <mxCell id="0" />
        <mxCell id="1" parent="0" />
        <mxCell id="QdznRPr2Wm_tBLUXqRES-27" value="" style="rounded=0;whiteSpace=wrap;html=1;" vertex="1" parent="1">
          <mxGeometry x="40" y="91.5" width="370" height="80" as="geometry" />
        </mxCell>
        <mxCell id="QdznRPr2Wm_tBLUXqRES-73" style="edgeStyle=orthogonalEdgeStyle;rounded=0;orthogonalLoop=1;jettySize=auto;html=1;exitX=0.5;exitY=0;exitDx=0;exitDy=0;entryX=0.25;entryY=0;entryDx=0;entryDy=0;" edge="1" parent="1" source="QdznRPr2Wm_tBLUXqRES-29" target="QdznRPr2Wm_tBLUXqRES-54">
          <mxGeometry relative="1" as="geometry">
            <Array as="points">
              <mxPoint x="90" y="130" />
              <mxPoint x="165" y="130" />
            </Array>
          </mxGeometry>
        </mxCell>
        <mxCell id="QdznRPr2Wm_tBLUXqRES-29" value="GE0/8/0" style="rounded=1;whiteSpace=wrap;html=1;" vertex="1" parent="1">
          <mxGeometry x="60" y="171.5" width="60" height="20" as="geometry" />
        </mxCell>
        <mxCell id="QdznRPr2Wm_tBLUXqRES-75" style="edgeStyle=orthogonalEdgeStyle;curved=1;rounded=0;orthogonalLoop=1;jettySize=auto;html=1;exitX=0.5;exitY=1;exitDx=0;exitDy=0;entryX=0.5;entryY=1;entryDx=0;entryDy=0;" edge="1" parent="1" source="QdznRPr2Wm_tBLUXqRES-31" target="QdznRPr2Wm_tBLUXqRES-78">
          <mxGeometry relative="1" as="geometry">
            <mxPoint x="470" y="320" as="targetPoint" />
            <Array as="points">
              <mxPoint x="363" y="290" />
              <mxPoint x="550" y="290" />
            </Array>
          </mxGeometry>
        </mxCell>
        <mxCell id="QdznRPr2Wm_tBLUXqRES-31" value="GE0/3/0" style="rounded=1;whiteSpace=wrap;html=1;" vertex="1" parent="1">
          <mxGeometry x="333" y="171.5" width="60" height="20" as="geometry" />
        </mxCell>
        <mxCell id="QdznRPr2Wm_tBLUXqRES-32" style="edgeStyle=orthogonalEdgeStyle;rounded=0;orthogonalLoop=1;jettySize=auto;html=1;exitX=0.5;exitY=0;exitDx=0;exitDy=0;entryX=0.5;entryY=1;entryDx=0;entryDy=0;" edge="1" parent="1" source="QdznRPr2Wm_tBLUXqRES-33" target="QdznRPr2Wm_tBLUXqRES-29">
          <mxGeometry relative="1" as="geometry" />
        </mxCell>
        <mxCell id="QdznRPr2Wm_tBLUXqRES-33" value="" style="rounded=0;whiteSpace=wrap;html=1;" vertex="1" parent="1">
          <mxGeometry x="60" y="261.5" width="60" height="50" as="geometry" />
        </mxCell>
        <mxCell id="QdznRPr2Wm_tBLUXqRES-34" value="20.20.20.2" style="text;html=1;strokeColor=none;fillColor=none;align=center;verticalAlign=middle;whiteSpace=wrap;rounded=0;" vertex="1" parent="1">
          <mxGeometry x="40" y="241.5" width="40" height="20" as="geometry" />
        </mxCell>
        <mxCell id="QdznRPr2Wm_tBLUXqRES-40" value="dpdk-input" style="text;html=1;strokeColor=none;fillColor=none;align=center;verticalAlign=middle;whiteSpace=wrap;rounded=0;" vertex="1" parent="1">
          <mxGeometry x="20" y="191.5" width="60" height="20" as="geometry" />
        </mxCell>
        <mxCell id="QdznRPr2Wm_tBLUXqRES-41" value="192.168.31.76" style="text;html=1;strokeColor=none;fillColor=none;align=center;verticalAlign=middle;whiteSpace=wrap;rounded=0;" vertex="1" parent="1">
          <mxGeometry x="373" y="191.5" width="60" height="20" as="geometry" />
        </mxCell>
        <mxCell id="QdznRPr2Wm_tBLUXqRES-43" value="VPP" style="text;html=1;strokeColor=none;fillColor=none;align=center;verticalAlign=middle;whiteSpace=wrap;rounded=0;" vertex="1" parent="1">
          <mxGeometry x="40" y="91.5" width="40" height="20" as="geometry" />
        </mxCell>
        <mxCell id="QdznRPr2Wm_tBLUXqRES-44" value="" style="shape=table;html=1;whiteSpace=wrap;startSize=0;container=1;collapsible=0;childLayout=tableLayout;" vertex="1" parent="1">
          <mxGeometry x="130" y="330" width="200" height="47" as="geometry" />
        </mxCell>
        <mxCell id="QdznRPr2Wm_tBLUXqRES-45" value="" style="shape=partialRectangle;html=1;whiteSpace=wrap;collapsible=0;dropTarget=0;pointerEvents=0;fillColor=none;top=0;left=0;bottom=0;right=0;points=[[0,0.5],[1,0.5]];portConstraint=eastwest;" vertex="1" parent="QdznRPr2Wm_tBLUXqRES-44">
          <mxGeometry width="200" height="23" as="geometry" />
        </mxCell>
        <mxCell id="QdznRPr2Wm_tBLUXqRES-46" value="dst" style="shape=partialRectangle;html=1;whiteSpace=wrap;connectable=0;fillColor=none;top=0;left=0;bottom=0;right=0;overflow=hidden;" vertex="1" parent="QdznRPr2Wm_tBLUXqRES-45">
          <mxGeometry width="61" height="23" as="geometry" />
        </mxCell>
        <mxCell id="QdznRPr2Wm_tBLUXqRES-47" value="next hoop" style="shape=partialRectangle;html=1;whiteSpace=wrap;connectable=0;fillColor=none;top=0;left=0;bottom=0;right=0;overflow=hidden;" vertex="1" parent="QdznRPr2Wm_tBLUXqRES-45">
          <mxGeometry x="61" width="80" height="23" as="geometry" />
        </mxCell>
        <mxCell id="QdznRPr2Wm_tBLUXqRES-48" value="out int" style="shape=partialRectangle;html=1;whiteSpace=wrap;connectable=0;fillColor=none;top=0;left=0;bottom=0;right=0;overflow=hidden;" vertex="1" parent="QdznRPr2Wm_tBLUXqRES-45">
          <mxGeometry x="141" width="59" height="23" as="geometry" />
        </mxCell>
        <mxCell id="QdznRPr2Wm_tBLUXqRES-49" value="" style="shape=partialRectangle;html=1;whiteSpace=wrap;collapsible=0;dropTarget=0;pointerEvents=0;fillColor=none;top=0;left=0;bottom=0;right=0;points=[[0,0.5],[1,0.5]];portConstraint=eastwest;" vertex="1" parent="QdznRPr2Wm_tBLUXqRES-44">
          <mxGeometry y="23" width="200" height="24" as="geometry" />
        </mxCell>
        <mxCell id="QdznRPr2Wm_tBLUXqRES-50" value="10.100.0.0" style="shape=partialRectangle;html=1;whiteSpace=wrap;connectable=0;fillColor=none;top=0;left=0;bottom=0;right=0;overflow=hidden;" vertex="1" parent="QdznRPr2Wm_tBLUXqRES-49">
          <mxGeometry width="61" height="24" as="geometry" />
        </mxCell>
        <mxCell id="QdznRPr2Wm_tBLUXqRES-51" value="10.100.0.6" style="shape=partialRectangle;html=1;whiteSpace=wrap;connectable=0;fillColor=none;top=0;left=0;bottom=0;right=0;overflow=hidden;" vertex="1" parent="QdznRPr2Wm_tBLUXqRES-49">
          <mxGeometry x="61" width="80" height="24" as="geometry" />
        </mxCell>
        <mxCell id="QdznRPr2Wm_tBLUXqRES-52" value="loop0" style="shape=partialRectangle;html=1;whiteSpace=wrap;connectable=0;fillColor=none;top=0;left=0;bottom=0;right=0;overflow=hidden;" vertex="1" parent="QdznRPr2Wm_tBLUXqRES-49">
          <mxGeometry x="141" width="59" height="24" as="geometry" />
        </mxCell>
        <mxCell id="QdznRPr2Wm_tBLUXqRES-53" style="edgeStyle=orthogonalEdgeStyle;rounded=0;orthogonalLoop=1;jettySize=auto;html=1;exitX=0.75;exitY=0;exitDx=0;exitDy=0;entryX=0;entryY=0.5;entryDx=0;entryDy=0;" edge="1" parent="1" source="QdznRPr2Wm_tBLUXqRES-54" target="QdznRPr2Wm_tBLUXqRES-58">
          <mxGeometry relative="1" as="geometry">
            <Array as="points">
              <mxPoint x="195" y="125" />
            </Array>
          </mxGeometry>
        </mxCell>
        <mxCell id="QdznRPr2Wm_tBLUXqRES-54" value="loop0" style="rounded=1;whiteSpace=wrap;html=1;" vertex="1" parent="1">
          <mxGeometry x="150" y="170" width="60" height="20" as="geometry" />
        </mxCell>
        <mxCell id="QdznRPr2Wm_tBLUXqRES-55" style="edgeStyle=orthogonalEdgeStyle;rounded=0;orthogonalLoop=1;jettySize=auto;html=1;exitX=0.75;exitY=0;exitDx=0;exitDy=0;entryX=0;entryY=0.5;entryDx=0;entryDy=0;" edge="1" parent="1" source="QdznRPr2Wm_tBLUXqRES-56" target="QdznRPr2Wm_tBLUXqRES-60">
          <mxGeometry relative="1" as="geometry">
            <Array as="points">
              <mxPoint x="285" y="125" />
            </Array>
          </mxGeometry>
        </mxCell>
        <mxCell id="QdznRPr2Wm_tBLUXqRES-56" value="loop1" style="rounded=1;whiteSpace=wrap;html=1;" vertex="1" parent="1">
          <mxGeometry x="240" y="170" width="60" height="20" as="geometry" />
        </mxCell>
        <mxCell id="QdznRPr2Wm_tBLUXqRES-57" style="edgeStyle=orthogonalEdgeStyle;rounded=0;orthogonalLoop=1;jettySize=auto;html=1;exitX=1;exitY=0.5;exitDx=0;exitDy=0;entryX=0.25;entryY=0;entryDx=0;entryDy=0;" edge="1" parent="1" source="QdznRPr2Wm_tBLUXqRES-58" target="QdznRPr2Wm_tBLUXqRES-56">
          <mxGeometry relative="1" as="geometry">
            <Array as="points">
              <mxPoint x="255" y="125" />
            </Array>
          </mxGeometry>
        </mxCell>
        <mxCell id="QdznRPr2Wm_tBLUXqRES-58" value="IPSec" style="rounded=1;whiteSpace=wrap;html=1;" vertex="1" parent="1">
          <mxGeometry x="206" y="110" width="38" height="30" as="geometry" />
        </mxCell>
        <mxCell id="QdznRPr2Wm_tBLUXqRES-59" style="edgeStyle=orthogonalEdgeStyle;rounded=0;orthogonalLoop=1;jettySize=auto;html=1;exitX=1;exitY=0.5;exitDx=0;exitDy=0;" edge="1" parent="1" source="QdznRPr2Wm_tBLUXqRES-60" target="QdznRPr2Wm_tBLUXqRES-31">
          <mxGeometry relative="1" as="geometry" />
        </mxCell>
        <mxCell id="QdznRPr2Wm_tBLUXqRES-60" value="VxLAN" style="rounded=1;whiteSpace=wrap;html=1;" vertex="1" parent="1">
          <mxGeometry x="300" y="110" width="38" height="30" as="geometry" />
        </mxCell>
        <mxCell id="QdznRPr2Wm_tBLUXqRES-61" value="" style="shape=table;html=1;whiteSpace=wrap;startSize=0;container=1;collapsible=0;childLayout=tableLayout;" vertex="1" parent="1">
          <mxGeometry x="130" y="377" width="200" height="47" as="geometry" />
        </mxCell>
        <mxCell id="QdznRPr2Wm_tBLUXqRES-62" value="" style="shape=partialRectangle;html=1;whiteSpace=wrap;collapsible=0;dropTarget=0;pointerEvents=0;fillColor=none;top=0;left=0;bottom=0;right=0;points=[[0,0.5],[1,0.5]];portConstraint=eastwest;" vertex="1" parent="QdznRPr2Wm_tBLUXqRES-61">
          <mxGeometry width="200" height="23" as="geometry" />
        </mxCell>
        <mxCell id="QdznRPr2Wm_tBLUXqRES-63" value="10.101.0.0" style="shape=partialRectangle;html=1;whiteSpace=wrap;connectable=0;fillColor=none;top=0;left=0;bottom=0;right=0;overflow=hidden;" vertex="1" parent="QdznRPr2Wm_tBLUXqRES-62">
          <mxGeometry width="61" height="23" as="geometry" />
        </mxCell>
        <mxCell id="QdznRPr2Wm_tBLUXqRES-64" value="10.101.0.6" style="shape=partialRectangle;html=1;whiteSpace=wrap;connectable=0;fillColor=none;top=0;left=0;bottom=0;right=0;overflow=hidden;" vertex="1" parent="QdznRPr2Wm_tBLUXqRES-62">
          <mxGeometry x="61" width="80" height="23" as="geometry" />
        </mxCell>
        <mxCell id="QdznRPr2Wm_tBLUXqRES-65" value="loop1" style="shape=partialRectangle;html=1;whiteSpace=wrap;connectable=0;fillColor=none;top=0;left=0;bottom=0;right=0;overflow=hidden;" vertex="1" parent="QdznRPr2Wm_tBLUXqRES-62">
          <mxGeometry x="141" width="59" height="23" as="geometry" />
        </mxCell>
        <mxCell id="QdznRPr2Wm_tBLUXqRES-66" value="" style="shape=partialRectangle;html=1;whiteSpace=wrap;collapsible=0;dropTarget=0;pointerEvents=0;fillColor=none;top=0;left=0;bottom=0;right=0;points=[[0,0.5],[1,0.5]];portConstraint=eastwest;" vertex="1" parent="QdznRPr2Wm_tBLUXqRES-61">
          <mxGeometry y="23" width="200" height="24" as="geometry" />
        </mxCell>
        <mxCell id="QdznRPr2Wm_tBLUXqRES-67" value="" style="shape=partialRectangle;html=1;whiteSpace=wrap;connectable=0;fillColor=none;top=0;left=0;bottom=0;right=0;overflow=hidden;" vertex="1" parent="QdznRPr2Wm_tBLUXqRES-66">
          <mxGeometry width="61" height="24" as="geometry" />
        </mxCell>
        <mxCell id="QdznRPr2Wm_tBLUXqRES-68" value="192.168.0.47" style="shape=partialRectangle;html=1;whiteSpace=wrap;connectable=0;fillColor=none;top=0;left=0;bottom=0;right=0;overflow=hidden;" vertex="1" parent="QdznRPr2Wm_tBLUXqRES-66">
          <mxGeometry x="61" width="80" height="24" as="geometry" />
        </mxCell>
        <mxCell id="QdznRPr2Wm_tBLUXqRES-69" value="GE0/3/0" style="shape=partialRectangle;html=1;whiteSpace=wrap;connectable=0;fillColor=none;top=0;left=0;bottom=0;right=0;overflow=hidden;" vertex="1" parent="QdznRPr2Wm_tBLUXqRES-66">
          <mxGeometry x="141" width="59" height="24" as="geometry" />
        </mxCell>
        <mxCell id="QdznRPr2Wm_tBLUXqRES-70" value="10.100.0.7" style="text;html=1;strokeColor=none;fillColor=none;align=center;verticalAlign=middle;whiteSpace=wrap;rounded=0;" vertex="1" parent="1">
          <mxGeometry x="150" y="191.5" width="60" height="20" as="geometry" />
        </mxCell>
        <mxCell id="QdznRPr2Wm_tBLUXqRES-71" value="10.101.0.7" style="text;html=1;strokeColor=none;fillColor=none;align=center;verticalAlign=middle;whiteSpace=wrap;rounded=0;" vertex="1" parent="1">
          <mxGeometry x="240" y="191.5" width="60" height="20" as="geometry" />
        </mxCell>
        <mxCell id="QdznRPr2Wm_tBLUXqRES-74" value="" style="ellipse;shape=cloud;whiteSpace=wrap;html=1;" vertex="1" parent="1">
          <mxGeometry x="393" y="248.5" width="120" height="63" as="geometry" />
        </mxCell>
        <mxCell id="QdznRPr2Wm_tBLUXqRES-76" value="" style="rounded=0;whiteSpace=wrap;html=1;" vertex="1" parent="1">
          <mxGeometry x="500" y="91.5" width="370" height="80" as="geometry" />
        </mxCell>
        <mxCell id="QdznRPr2Wm_tBLUXqRES-77" style="edgeStyle=orthogonalEdgeStyle;rounded=0;orthogonalLoop=1;jettySize=auto;html=1;exitX=0.5;exitY=0;exitDx=0;exitDy=0;entryX=0.25;entryY=0;entryDx=0;entryDy=0;" edge="1" parent="1" source="QdznRPr2Wm_tBLUXqRES-78" target="QdznRPr2Wm_tBLUXqRES-87">
          <mxGeometry relative="1" as="geometry">
            <Array as="points">
              <mxPoint x="550" y="130" />
              <mxPoint x="625" y="130" />
            </Array>
          </mxGeometry>
        </mxCell>
        <mxCell id="QdznRPr2Wm_tBLUXqRES-78" value="GE0/8/0" style="rounded=1;whiteSpace=wrap;html=1;" vertex="1" parent="1">
          <mxGeometry x="520" y="171.5" width="60" height="20" as="geometry" />
        </mxCell>
        <mxCell id="QdznRPr2Wm_tBLUXqRES-79" value="GE0/3/0" style="rounded=1;whiteSpace=wrap;html=1;" vertex="1" parent="1">
          <mxGeometry x="793" y="171.5" width="60" height="20" as="geometry" />
        </mxCell>
        <mxCell id="QdznRPr2Wm_tBLUXqRES-80" style="edgeStyle=orthogonalEdgeStyle;rounded=0;orthogonalLoop=1;jettySize=auto;html=1;exitX=0.5;exitY=0;exitDx=0;exitDy=0;entryX=0.5;entryY=1;entryDx=0;entryDy=0;startArrow=classic;startFill=1;endArrow=none;endFill=0;" edge="1" parent="1" source="QdznRPr2Wm_tBLUXqRES-81" target="QdznRPr2Wm_tBLUXqRES-79">
          <mxGeometry relative="1" as="geometry" />
        </mxCell>
        <mxCell id="QdznRPr2Wm_tBLUXqRES-81" value="" style="rounded=0;whiteSpace=wrap;html=1;" vertex="1" parent="1">
          <mxGeometry x="793" y="261.5" width="60" height="50" as="geometry" />
        </mxCell>
        <mxCell id="QdznRPr2Wm_tBLUXqRES-82" value="10.10.10.2" style="text;html=1;strokeColor=none;fillColor=none;align=center;verticalAlign=middle;whiteSpace=wrap;rounded=0;" vertex="1" parent="1">
          <mxGeometry x="833" y="241.5" width="40" height="20" as="geometry" />
        </mxCell>
        <mxCell id="QdznRPr2Wm_tBLUXqRES-83" value="dpdk-input" style="text;html=1;strokeColor=none;fillColor=none;align=center;verticalAlign=middle;whiteSpace=wrap;rounded=0;" vertex="1" parent="1">
          <mxGeometry x="480" y="191.5" width="60" height="20" as="geometry" />
        </mxCell>
        <mxCell id="QdznRPr2Wm_tBLUXqRES-84" value="192.168.31.47" style="text;html=1;strokeColor=none;fillColor=none;align=center;verticalAlign=middle;whiteSpace=wrap;rounded=0;" vertex="1" parent="1">
          <mxGeometry x="833" y="191.5" width="60" height="20" as="geometry" />
        </mxCell>
        <mxCell id="QdznRPr2Wm_tBLUXqRES-85" value="VPP" style="text;html=1;strokeColor=none;fillColor=none;align=center;verticalAlign=middle;whiteSpace=wrap;rounded=0;" vertex="1" parent="1">
          <mxGeometry x="500" y="91.5" width="40" height="20" as="geometry" />
        </mxCell>
        <mxCell id="QdznRPr2Wm_tBLUXqRES-86" style="edgeStyle=orthogonalEdgeStyle;rounded=0;orthogonalLoop=1;jettySize=auto;html=1;exitX=0.75;exitY=0;exitDx=0;exitDy=0;entryX=0;entryY=0.5;entryDx=0;entryDy=0;" edge="1" parent="1" source="QdznRPr2Wm_tBLUXqRES-87" target="QdznRPr2Wm_tBLUXqRES-91">
          <mxGeometry relative="1" as="geometry">
            <Array as="points">
              <mxPoint x="655" y="125" />
            </Array>
          </mxGeometry>
        </mxCell>
        <mxCell id="QdznRPr2Wm_tBLUXqRES-87" value="loop0" style="rounded=1;whiteSpace=wrap;html=1;" vertex="1" parent="1">
          <mxGeometry x="610" y="170" width="60" height="20" as="geometry" />
        </mxCell>
        <mxCell id="QdznRPr2Wm_tBLUXqRES-88" style="edgeStyle=orthogonalEdgeStyle;rounded=0;orthogonalLoop=1;jettySize=auto;html=1;exitX=0.75;exitY=0;exitDx=0;exitDy=0;entryX=0;entryY=0.5;entryDx=0;entryDy=0;" edge="1" parent="1" source="QdznRPr2Wm_tBLUXqRES-89" target="QdznRPr2Wm_tBLUXqRES-93">
          <mxGeometry relative="1" as="geometry">
            <Array as="points">
              <mxPoint x="745" y="125" />
            </Array>
          </mxGeometry>
        </mxCell>
        <mxCell id="QdznRPr2Wm_tBLUXqRES-89" value="loop1" style="rounded=1;whiteSpace=wrap;html=1;" vertex="1" parent="1">
          <mxGeometry x="700" y="170" width="60" height="20" as="geometry" />
        </mxCell>
        <mxCell id="QdznRPr2Wm_tBLUXqRES-90" style="edgeStyle=orthogonalEdgeStyle;rounded=0;orthogonalLoop=1;jettySize=auto;html=1;exitX=1;exitY=0.5;exitDx=0;exitDy=0;entryX=0.25;entryY=0;entryDx=0;entryDy=0;" edge="1" parent="1" source="QdznRPr2Wm_tBLUXqRES-91" target="QdznRPr2Wm_tBLUXqRES-89">
          <mxGeometry relative="1" as="geometry">
            <Array as="points">
              <mxPoint x="715" y="125" />
            </Array>
          </mxGeometry>
        </mxCell>
        <mxCell id="QdznRPr2Wm_tBLUXqRES-91" value="IPSec" style="rounded=1;whiteSpace=wrap;html=1;" vertex="1" parent="1">
          <mxGeometry x="666" y="110" width="38" height="30" as="geometry" />
        </mxCell>
        <mxCell id="QdznRPr2Wm_tBLUXqRES-92" style="edgeStyle=orthogonalEdgeStyle;rounded=0;orthogonalLoop=1;jettySize=auto;html=1;exitX=1;exitY=0.5;exitDx=0;exitDy=0;" edge="1" parent="1" source="QdznRPr2Wm_tBLUXqRES-93" target="QdznRPr2Wm_tBLUXqRES-79">
          <mxGeometry relative="1" as="geometry" />
        </mxCell>
        <mxCell id="QdznRPr2Wm_tBLUXqRES-93" value="VxLAN" style="rounded=1;whiteSpace=wrap;html=1;" vertex="1" parent="1">
          <mxGeometry x="760" y="110" width="38" height="30" as="geometry" />
        </mxCell>
        <mxCell id="QdznRPr2Wm_tBLUXqRES-94" value="10.100.0.6" style="text;html=1;strokeColor=none;fillColor=none;align=center;verticalAlign=middle;whiteSpace=wrap;rounded=0;" vertex="1" parent="1">
          <mxGeometry x="610" y="191.5" width="60" height="20" as="geometry" />
        </mxCell>
        <mxCell id="QdznRPr2Wm_tBLUXqRES-95" value="10.101.0.6" style="text;html=1;strokeColor=none;fillColor=none;align=center;verticalAlign=middle;whiteSpace=wrap;rounded=0;" vertex="1" parent="1">
          <mxGeometry x="700" y="191.5" width="60" height="20" as="geometry" />
        </mxCell>
        <mxCell id="QdznRPr2Wm_tBLUXqRES-96" value="" style="shape=table;html=1;whiteSpace=wrap;startSize=0;container=1;collapsible=0;childLayout=tableLayout;" vertex="1" parent="1">
          <mxGeometry x="598" y="333" width="200" height="47" as="geometry" />
        </mxCell>
        <mxCell id="QdznRPr2Wm_tBLUXqRES-97" value="" style="shape=partialRectangle;html=1;whiteSpace=wrap;collapsible=0;dropTarget=0;pointerEvents=0;fillColor=none;top=0;left=0;bottom=0;right=0;points=[[0,0.5],[1,0.5]];portConstraint=eastwest;" vertex="1" parent="QdznRPr2Wm_tBLUXqRES-96">
          <mxGeometry width="200" height="23" as="geometry" />
        </mxCell>
        <mxCell id="QdznRPr2Wm_tBLUXqRES-98" value="dst" style="shape=partialRectangle;html=1;whiteSpace=wrap;connectable=0;fillColor=none;top=0;left=0;bottom=0;right=0;overflow=hidden;" vertex="1" parent="QdznRPr2Wm_tBLUXqRES-97">
          <mxGeometry width="61" height="23" as="geometry" />
        </mxCell>
        <mxCell id="QdznRPr2Wm_tBLUXqRES-99" value="next hoop" style="shape=partialRectangle;html=1;whiteSpace=wrap;connectable=0;fillColor=none;top=0;left=0;bottom=0;right=0;overflow=hidden;" vertex="1" parent="QdznRPr2Wm_tBLUXqRES-97">
          <mxGeometry x="61" width="80" height="23" as="geometry" />
        </mxCell>
        <mxCell id="QdznRPr2Wm_tBLUXqRES-100" value="out int" style="shape=partialRectangle;html=1;whiteSpace=wrap;connectable=0;fillColor=none;top=0;left=0;bottom=0;right=0;overflow=hidden;" vertex="1" parent="QdznRPr2Wm_tBLUXqRES-97">
          <mxGeometry x="141" width="59" height="23" as="geometry" />
        </mxCell>
        <mxCell id="QdznRPr2Wm_tBLUXqRES-101" value="" style="shape=partialRectangle;html=1;whiteSpace=wrap;collapsible=0;dropTarget=0;pointerEvents=0;fillColor=none;top=0;left=0;bottom=0;right=0;points=[[0,0.5],[1,0.5]];portConstraint=eastwest;" vertex="1" parent="QdznRPr2Wm_tBLUXqRES-96">
          <mxGeometry y="23" width="200" height="24" as="geometry" />
        </mxCell>
        <mxCell id="QdznRPr2Wm_tBLUXqRES-102" value="10.100.0.0" style="shape=partialRectangle;html=1;whiteSpace=wrap;connectable=0;fillColor=none;top=0;left=0;bottom=0;right=0;overflow=hidden;" vertex="1" parent="QdznRPr2Wm_tBLUXqRES-101">
          <mxGeometry width="61" height="24" as="geometry" />
        </mxCell>
        <mxCell id="QdznRPr2Wm_tBLUXqRES-103" value="10.100.0.7" style="shape=partialRectangle;html=1;whiteSpace=wrap;connectable=0;fillColor=none;top=0;left=0;bottom=0;right=0;overflow=hidden;" vertex="1" parent="QdznRPr2Wm_tBLUXqRES-101">
          <mxGeometry x="61" width="80" height="24" as="geometry" />
        </mxCell>
        <mxCell id="QdznRPr2Wm_tBLUXqRES-104" value="loop0" style="shape=partialRectangle;html=1;whiteSpace=wrap;connectable=0;fillColor=none;top=0;left=0;bottom=0;right=0;overflow=hidden;" vertex="1" parent="QdznRPr2Wm_tBLUXqRES-101">
          <mxGeometry x="141" width="59" height="24" as="geometry" />
        </mxCell>
        <mxCell id="QdznRPr2Wm_tBLUXqRES-105" value="" style="shape=table;html=1;whiteSpace=wrap;startSize=0;container=1;collapsible=0;childLayout=tableLayout;" vertex="1" parent="1">
          <mxGeometry x="598" y="380" width="200" height="47" as="geometry" />
        </mxCell>
        <mxCell id="QdznRPr2Wm_tBLUXqRES-106" value="" style="shape=partialRectangle;html=1;whiteSpace=wrap;collapsible=0;dropTarget=0;pointerEvents=0;fillColor=none;top=0;left=0;bottom=0;right=0;points=[[0,0.5],[1,0.5]];portConstraint=eastwest;" vertex="1" parent="QdznRPr2Wm_tBLUXqRES-105">
          <mxGeometry width="200" height="23" as="geometry" />
        </mxCell>
        <mxCell id="QdznRPr2Wm_tBLUXqRES-107" value="10.101.0.0" style="shape=partialRectangle;html=1;whiteSpace=wrap;connectable=0;fillColor=none;top=0;left=0;bottom=0;right=0;overflow=hidden;" vertex="1" parent="QdznRPr2Wm_tBLUXqRES-106">
          <mxGeometry width="61" height="23" as="geometry" />
        </mxCell>
        <mxCell id="QdznRPr2Wm_tBLUXqRES-108" value="10.101.0.7" style="shape=partialRectangle;html=1;whiteSpace=wrap;connectable=0;fillColor=none;top=0;left=0;bottom=0;right=0;overflow=hidden;" vertex="1" parent="QdznRPr2Wm_tBLUXqRES-106">
          <mxGeometry x="61" width="80" height="23" as="geometry" />
        </mxCell>
        <mxCell id="QdznRPr2Wm_tBLUXqRES-109" value="loop1" style="shape=partialRectangle;html=1;whiteSpace=wrap;connectable=0;fillColor=none;top=0;left=0;bottom=0;right=0;overflow=hidden;" vertex="1" parent="QdznRPr2Wm_tBLUXqRES-106">
          <mxGeometry x="141" width="59" height="23" as="geometry" />
        </mxCell>
        <mxCell id="QdznRPr2Wm_tBLUXqRES-110" value="" style="shape=partialRectangle;html=1;whiteSpace=wrap;collapsible=0;dropTarget=0;pointerEvents=0;fillColor=none;top=0;left=0;bottom=0;right=0;points=[[0,0.5],[1,0.5]];portConstraint=eastwest;" vertex="1" parent="QdznRPr2Wm_tBLUXqRES-105">
          <mxGeometry y="23" width="200" height="24" as="geometry" />
        </mxCell>
        <mxCell id="QdznRPr2Wm_tBLUXqRES-111" value="" style="shape=partialRectangle;html=1;whiteSpace=wrap;connectable=0;fillColor=none;top=0;left=0;bottom=0;right=0;overflow=hidden;" vertex="1" parent="QdznRPr2Wm_tBLUXqRES-110">
          <mxGeometry width="61" height="24" as="geometry" />
        </mxCell>
        <mxCell id="QdznRPr2Wm_tBLUXqRES-112" value="192.168.0.76" style="shape=partialRectangle;html=1;whiteSpace=wrap;connectable=0;fillColor=none;top=0;left=0;bottom=0;right=0;overflow=hidden;" vertex="1" parent="QdznRPr2Wm_tBLUXqRES-110">
          <mxGeometry x="61" width="80" height="24" as="geometry" />
        </mxCell>
        <mxCell id="QdznRPr2Wm_tBLUXqRES-113" value="GE0/3/0" style="shape=partialRectangle;html=1;whiteSpace=wrap;connectable=0;fillColor=none;top=0;left=0;bottom=0;right=0;overflow=hidden;" vertex="1" parent="QdznRPr2Wm_tBLUXqRES-110">
          <mxGeometry x="141" width="59" height="24" as="geometry" />
        </mxCell>
      </root>
    </mxGraphModel>
  </diagram>
</mxfile>
